<svg width="82" height="82" viewBox="0 0 82 82" fill="none" xmlns="http://www.w3.org/2000/svg">
<rect width="82" height="82" rx="41" fill="url(#paint0_linear_95_367)"/>
<g clip-path="url(#clip0_95_367)">
<path d="M42.2961 34.4834C41.8693 34.3984 41.4352 34.3556 41 34.3555C37.3362 34.3555 34.3555 37.3362 34.3555 41C34.3555 44.6638 37.3362 47.6445 41 47.6445C44.6638 47.6445 47.6445 44.6638 47.6445 41C47.6445 40.5565 47.6 40.1232 47.5166 39.7039L43.6103 43.6102C42.913 44.3075 41.986 44.6914 41 44.6914C40.014 44.6914 39.087 44.3075 38.3898 43.6102C37.6925 42.913 37.3086 41.986 37.3086 41C37.3086 40.014 37.6925 39.087 38.3898 38.3898L42.2961 34.4834Z" fill="white"/>
<path d="M60.1207 32.3201L57.4732 34.9675C57.2123 35.229 56.9136 35.4498 56.5872 35.6228C57.1704 37.3092 57.4883 39.1182 57.4883 41C57.4883 50.0917 50.0917 57.4883 41 57.4883C31.9083 57.4883 24.5117 50.0917 24.5117 41C24.5117 31.9083 31.9083 24.5117 41 24.5117C42.8826 24.5117 44.6924 24.8299 46.3791 25.4134C46.5514 25.0867 46.7718 24.7878 47.0328 24.5265L49.68 21.8793C47.0328 20.6729 44.0937 20 41 20C29.4205 20 20 29.4205 20 41C20 52.5795 29.4205 62 41 62C52.5795 62 62 52.5795 62 41C62 37.9062 61.3271 34.9672 60.1207 32.32V32.3201Z" fill="white"/>
<path d="M46.2262 30.5532L46.002 27.8949C44.4475 27.2991 42.7615 26.9727 41 26.9727C33.2653 26.9727 26.9727 33.2653 26.9727 41C26.9727 48.7347 33.2653 55.0273 41 55.0273C48.7347 55.0273 55.0273 48.7347 55.0273 41C55.0273 39.2385 54.7009 37.5525 54.1051 35.998L51.4468 35.7737L49.4956 37.7245C49.8892 38.7417 50.1055 39.8458 50.1055 41C50.1055 46.0209 46.0209 50.1055 41 50.1055C35.9791 50.1055 31.8945 46.0209 31.8945 41C31.8945 35.9791 35.9791 31.8945 41 31.8945C42.1542 31.8945 43.2584 32.1108 44.2755 32.5044L46.2262 30.5532Z" fill="white"/>
<path d="M48.4164 27.2402L48.7747 31.4854L40.1301 40.1301C39.6494 40.6104 39.6494 41.3897 40.1301 41.8699C40.37 42.1103 40.685 42.2305 41 42.2305C41.315 42.2305 41.63 42.1103 41.8699 41.8699L50.5146 33.2253L54.7598 33.5832C54.9381 33.5983 55.1177 33.5742 55.2858 33.5127C55.4539 33.4512 55.6066 33.3538 55.7332 33.2272L60.9534 28.0067C61.1194 27.8409 61.2344 27.6312 61.2851 27.4022C61.3357 27.1731 61.3199 26.9344 61.2393 26.7141C61.1587 26.4938 61.0169 26.3011 60.8304 26.1588C60.644 26.0165 60.4207 25.9304 60.1869 25.9108L56.4078 25.5919L56.0892 21.8131C56.0695 21.5793 55.9834 21.3561 55.8411 21.1697C55.6987 20.9833 55.5061 20.8414 55.2858 20.7608C55.0655 20.6802 54.8268 20.6643 54.5977 20.7149C54.3687 20.7654 54.1589 20.8804 53.993 21.0462L48.7728 26.2667C48.6461 26.3933 48.5486 26.546 48.4871 26.7141C48.4255 26.8823 48.4014 27.0618 48.4164 27.2402Z" fill="white"/>
</g>
<defs>
<linearGradient id="paint0_linear_95_367" x1="41" y1="-8.5" x2="41" y2="82" gradientUnits="userSpaceOnUse">
<stop stop-color="#EE7193"/>
<stop offset="1" stop-color="#FDD16B"/>
</linearGradient>
<clipPath id="clip0_95_367">
<rect width="42" height="42" fill="white" transform="translate(20 20)"/>
</clipPath>
</defs>
</svg>
