<svg width="82" height="82" viewBox="0 0 82 82" fill="none" xmlns="http://www.w3.org/2000/svg">
<rect width="82" height="82" rx="41" fill="url(#paint0_linear_95_357)"/>
<path d="M41 52.1562C49.82 52.1562 56.9961 44.8981 56.9961 36.0781C56.9961 27.2581 49.82 20 41 20C32.18 20 25.0039 27.2581 25.0039 36.0781C25.0039 44.8981 32.18 52.1562 41 52.1562ZM32.8085 33.4153C32.8798 33.1972 33.0106 33.0033 33.1862 32.8555C33.3617 32.7077 33.5751 32.6119 33.8022 32.579L38.0127 31.9674L39.8969 28.151C40.3103 27.3099 41.6897 27.3099 42.1032 28.151L43.9873 31.9674L48.1978 32.579C48.4249 32.6119 48.6383 32.7077 48.8139 32.8555C48.9895 33.0033 49.1203 33.1972 49.1916 33.4153C49.2624 33.6337 49.2708 33.8676 49.2158 34.0905C49.1608 34.3135 49.0446 34.5166 48.8803 34.677L45.833 37.6487L46.5516 41.8436C46.5903 42.0699 46.5651 42.3026 46.4787 42.5153C46.3922 42.7281 46.2481 42.9124 46.0626 43.0477C45.8765 43.1824 45.6565 43.2624 45.4275 43.2787C45.1984 43.2951 44.9693 43.2471 44.766 43.1402L41 41.1598L37.2341 43.1401C36.8208 43.3588 36.3197 43.3216 35.9375 43.0476C35.752 42.9124 35.6078 42.728 35.5214 42.5152C35.435 42.3025 35.4097 42.0699 35.4485 41.8435L36.167 37.6486L33.1198 34.6769C32.9555 34.5166 32.8393 34.3134 32.7843 34.0905C32.7293 33.8676 32.7377 33.6337 32.8085 33.4153Z" fill="white"/>
<path d="M38.7013 37.4264L38.2952 39.802L40.4269 38.6809C40.6071 38.5859 40.803 38.539 41 38.539C41.1971 38.539 41.393 38.5859 41.5732 38.6809L43.7048 39.802L43.2987 37.4264C43.2649 37.2299 43.2795 37.0281 43.341 36.8385C43.4026 36.6488 43.5093 36.477 43.652 36.3377L45.3775 34.6554L42.9935 34.3094C42.796 34.2809 42.6084 34.2047 42.447 34.0875C42.2856 33.9702 42.1552 33.8154 42.067 33.6365L41 31.4758L39.933 33.6364C39.8448 33.8153 39.7144 33.9702 39.5529 34.0874C39.3915 34.2046 39.204 34.2808 39.0065 34.3093L36.6224 34.6554L38.348 36.3377C38.4907 36.4769 38.5974 36.6487 38.659 36.8384C38.7206 37.0281 38.7351 37.2299 38.7013 37.4264ZM23.9045 57.5996C24.2337 57.9625 24.7432 58.091 25.2083 57.9361L30.4762 56.148L32.6789 61.2562C32.8735 61.708 33.3577 61.8906 33.8084 62C34.0464 61.9999 34.2793 61.9308 34.4789 61.8011C34.6785 61.6715 34.8363 61.4868 34.9332 61.2694L38.0072 54.352C33.7316 53.6503 29.9533 51.4827 27.1987 48.3734L23.6882 56.2706C23.5909 56.4891 23.5596 56.7313 23.598 56.9674C23.6364 57.2035 23.7429 57.4232 23.9045 57.5996ZM47.0671 61.2694C47.1638 61.4869 47.3215 61.6717 47.5212 61.8014C47.7208 61.931 47.9537 62 48.1918 62C48.5979 61.923 49.1266 61.708 49.3214 61.2562L51.524 56.148L56.7919 57.9361C57.2557 58.0911 57.7665 57.9625 58.0957 57.5996C58.2573 57.4232 58.3638 57.2034 58.4022 56.9674C58.4406 56.7313 58.4093 56.4891 58.3121 56.2706L54.8016 48.3734C52.047 51.4828 48.2687 53.6504 43.9931 54.352L47.0671 61.2694Z" fill="white"/>
<defs>
<linearGradient id="paint0_linear_95_357" x1="41" y1="-8.5" x2="41" y2="82" gradientUnits="userSpaceOnUse">
<stop stop-color="#EE7193"/>
<stop offset="1" stop-color="#FDD16B"/>
</linearGradient>
</defs>
</svg>
