<svg width="36" height="36" viewBox="0 0 36 36" fill="none" xmlns="http://www.w3.org/2000/svg">
<path d="M17.9382 36C19.3528 36 20.4995 34.8533 20.4995 33.4387C20.4995 32.0242 19.3528 30.8774 17.9382 30.8774C16.5237 30.8774 15.377 32.0242 15.377 33.4387C15.377 34.8533 16.5237 36 17.9382 36Z" fill="#A80B36"/>
<path d="M17.9382 36C19.3528 36 20.4995 34.8533 20.4995 33.4387C20.4995 32.0242 19.3528 30.8774 17.9382 30.8774C16.5237 30.8774 15.377 32.0242 15.377 33.4387C15.377 34.8533 16.5237 36 17.9382 36Z" fill="url(#paint0_linear_101_2453)"/>
<path d="M5.68481 36C7.09936 36 8.24608 34.8533 8.24608 33.4387C8.24608 32.0242 7.09936 30.8774 5.68481 30.8774C4.27026 30.8774 3.12354 32.0242 3.12354 33.4387C3.12354 34.8533 4.27026 36 5.68481 36Z" fill="#A80B36"/>
<path d="M5.68481 36C7.09936 36 8.24608 34.8533 8.24608 33.4387C8.24608 32.0242 7.09936 30.8774 5.68481 30.8774C4.27026 30.8774 3.12354 32.0242 3.12354 33.4387C3.12354 34.8533 4.27026 36 5.68481 36Z" fill="url(#paint1_linear_101_2453)"/>
<path d="M31.2897 28.8113V26.463C31.2897 25.8568 30.7982 25.3653 30.192 25.3653H24.835V23.1448H26.5294C26.5467 23.1448 26.5638 23.1444 26.5808 23.1436C28.607 23.1159 30.5073 22.3092 31.9361 20.8693C33.3758 19.4185 34.1688 17.4937 34.1688 15.4496C34.1688 11.2451 30.7789 7.81727 26.5889 7.75526C26.1475 3.40573 22.464 0 17.9999 0C14.4121 0 11.2061 2.24002 9.93879 5.53802C5.40743 5.90063 1.83105 9.70418 1.83105 14.3273C1.83105 19.1893 5.78655 23.1448 10.6486 23.1448C10.6594 23.1448 10.6702 23.1447 10.6811 23.1446C10.6889 23.1448 10.6967 23.1448 10.7045 23.1448H11.0416V25.3653H5.68474C5.07851 25.3653 4.58702 25.8568 4.58702 26.463V28.8113C4.93964 28.7276 5.30688 28.682 5.68474 28.682C6.0626 28.682 6.42977 28.7276 6.78246 28.8113V27.5607H12.1395C12.7457 27.5607 13.2372 27.0693 13.2372 26.463V23.1448H16.8407V28.8112C17.1933 28.7275 17.5605 28.6819 17.9384 28.6819C18.3162 28.6819 18.6834 28.7276 19.0361 28.8112V23.1448H22.6395V26.463C22.6395 27.0693 23.131 27.5607 23.7373 27.5607H29.0943V28.8113C29.4539 28.7256 29.8223 28.6822 30.192 28.682C30.5698 28.682 30.9371 28.7276 31.2897 28.8113Z" fill="#A80B36"/>
<path d="M31.2897 28.8113V26.463C31.2897 25.8568 30.7982 25.3653 30.192 25.3653H24.835V23.1448H26.5294C26.5467 23.1448 26.5638 23.1444 26.5808 23.1436C28.607 23.1159 30.5073 22.3092 31.9361 20.8693C33.3758 19.4185 34.1688 17.4937 34.1688 15.4496C34.1688 11.2451 30.7789 7.81727 26.5889 7.75526C26.1475 3.40573 22.464 0 17.9999 0C14.4121 0 11.2061 2.24002 9.93879 5.53802C5.40743 5.90063 1.83105 9.70418 1.83105 14.3273C1.83105 19.1893 5.78655 23.1448 10.6486 23.1448C10.6594 23.1448 10.6702 23.1447 10.6811 23.1446C10.6889 23.1448 10.6967 23.1448 10.7045 23.1448H11.0416V25.3653H5.68474C5.07851 25.3653 4.58702 25.8568 4.58702 26.463V28.8113C4.93964 28.7276 5.30688 28.682 5.68474 28.682C6.0626 28.682 6.42977 28.7276 6.78246 28.8113V27.5607H12.1395C12.7457 27.5607 13.2372 27.0693 13.2372 26.463V23.1448H16.8407V28.8112C17.1933 28.7275 17.5605 28.6819 17.9384 28.6819C18.3162 28.6819 18.6834 28.7276 19.0361 28.8112V23.1448H22.6395V26.463C22.6395 27.0693 23.131 27.5607 23.7373 27.5607H29.0943V28.8113C29.4539 28.7256 29.8223 28.6822 30.192 28.682C30.5698 28.682 30.9371 28.7276 31.2897 28.8113Z" fill="url(#paint2_linear_101_2453)"/>
<path d="M30.1921 36C31.6067 36 32.7534 34.8533 32.7534 33.4387C32.7534 32.0242 31.6067 30.8774 30.1921 30.8774C28.7776 30.8774 27.6309 32.0242 27.6309 33.4387C27.6309 34.8533 28.7776 36 30.1921 36Z" fill="#A80B36"/>
<path d="M30.1921 36C31.6067 36 32.7534 34.8533 32.7534 33.4387C32.7534 32.0242 31.6067 30.8774 30.1921 30.8774C28.7776 30.8774 27.6309 32.0242 27.6309 33.4387C27.6309 34.8533 28.7776 36 30.1921 36Z" fill="url(#paint3_linear_101_2453)"/>
<defs>
<linearGradient id="paint0_linear_101_2453" x1="17.9382" y1="30.3464" x2="17.9382" y2="36" gradientUnits="userSpaceOnUse">
<stop stop-color="#EE7193"/>
<stop offset="1" stop-color="#FDD16B"/>
</linearGradient>
<linearGradient id="paint1_linear_101_2453" x1="5.68481" y1="30.3464" x2="5.68481" y2="36" gradientUnits="userSpaceOnUse">
<stop stop-color="#EE7193"/>
<stop offset="1" stop-color="#FDD16B"/>
</linearGradient>
<linearGradient id="paint2_linear_101_2453" x1="17.9999" y1="-2.98653" x2="17.9999" y2="28.8113" gradientUnits="userSpaceOnUse">
<stop stop-color="#EE7193"/>
<stop offset="1" stop-color="#FDD16B"/>
</linearGradient>
<linearGradient id="paint3_linear_101_2453" x1="30.1921" y1="30.3464" x2="30.1921" y2="36" gradientUnits="userSpaceOnUse">
<stop stop-color="#EE7193"/>
<stop offset="1" stop-color="#FDD16B"/>
</linearGradient>
</defs>
</svg>
