<svg width="82" height="82" viewBox="0 0 82 82" fill="none" xmlns="http://www.w3.org/2000/svg">
<rect width="82" height="82" rx="41" fill="url(#paint0_linear_95_347)"/>
<g clip-path="url(#clip0_95_347)">
<path d="M22.4609 41C22.4609 30.7775 30.7775 22.4609 41 22.4609C44.8446 22.4609 48.511 23.6267 51.5981 25.7903H49.2131C48.5336 25.7903 47.9827 26.3413 47.9827 27.0208C47.9827 27.7004 48.5336 28.2513 49.2131 28.2513H54.9793C55.6588 28.2513 56.2097 27.7004 56.2097 27.0208V21.2547C56.2097 20.5751 55.6588 20.0242 54.9793 20.0242C54.2997 20.0242 53.7488 20.5751 53.7488 21.2547V24.3176C50.1044 21.5175 45.6684 20 41 20C35.3907 20 30.1172 22.1844 26.1507 26.1507C22.1844 30.1172 20 35.3907 20 41C20 44.6849 20.9738 48.3157 22.8161 51.4998C23.0442 51.8941 23.4575 52.1143 23.8823 52.1143C24.0915 52.1143 24.3034 52.0608 24.4974 51.9486C25.0856 51.6083 25.2865 50.8556 24.9462 50.2673C23.3204 47.4573 22.4609 44.2527 22.4609 41ZM59.1839 30.5002C58.8434 29.9119 58.0906 29.7111 57.5026 30.0515C56.9144 30.3918 56.7135 31.1445 57.0538 31.7328C58.6796 34.5426 59.5391 37.7471 59.5391 41C59.5391 51.2225 51.2225 59.5391 41 59.5391C37.1558 59.5391 33.49 58.373 30.4032 56.2097H32.7869C33.4664 56.2097 34.0173 55.6587 34.0173 54.9792C34.0173 54.2996 33.4664 53.7487 32.7869 53.7487H27.0208C26.3413 53.7487 25.7903 54.2996 25.7903 54.9792V60.7453C25.7903 61.4249 26.3413 61.9758 27.0208 61.9758C27.7004 61.9758 28.2513 61.4249 28.2513 60.7453V57.6793C31.8956 60.4804 36.331 62 41 62C46.6093 62 51.8828 59.8156 55.8493 55.8493C59.8156 51.8828 62 46.6093 62 41C62 37.3149 61.0262 33.6841 59.1839 30.5002Z" fill="white"/>
<path d="M51.534 37.8174C51.5758 37.6614 51.5865 37.4986 51.5654 37.3384C51.5443 37.1782 51.4919 37.0237 51.411 36.8838L49.7704 34.0421C49.4306 33.4536 48.6782 33.252 48.0896 33.5918L46.9738 34.2359C46.0714 33.4349 45.016 32.825 43.8713 32.4431V31.1562C43.8713 30.4767 43.3204 29.9258 42.6408 29.9258H39.3596C38.68 29.9258 38.1291 30.4767 38.1291 31.1562V32.443C36.9844 32.8249 35.929 33.4348 35.0265 34.2359L33.9108 33.5917C33.3223 33.2517 32.5697 33.4535 32.23 34.042L30.5894 36.8837C30.2496 37.4722 30.4512 38.2247 31.0397 38.5645L32.1552 39.2085C32.0366 39.7961 31.9767 40.3955 31.9767 40.9999C31.9767 41.6043 32.0365 42.2038 32.1552 42.7913L31.0397 43.4353C30.4512 43.7751 30.2496 44.5277 30.5894 45.1162L32.23 47.9578C32.5698 48.5464 33.3222 48.748 33.9108 48.4082L35.0265 47.764C35.929 48.5651 36.9844 49.175 38.1291 49.5568V50.8438C38.1291 51.5233 38.68 52.0742 39.3596 52.0742H42.6408C43.3204 52.0742 43.8713 51.5233 43.8713 50.8438V49.557C45.016 49.1751 46.0714 48.5652 46.9738 47.7641L48.0896 48.4083C48.6781 48.7481 49.4306 48.5464 49.7704 47.958L51.411 45.1163C51.5742 44.8337 51.6184 44.4979 51.534 44.1826C51.4922 44.0266 51.4201 43.8802 51.3217 43.752C51.2233 43.6238 51.1006 43.5163 50.9607 43.4355L49.8451 42.7914C49.9638 42.2039 50.0236 41.6045 50.0236 41C50.0236 40.3955 49.9638 39.7961 49.8451 39.2086L50.9607 38.5645C51.1006 38.4837 51.2233 38.3762 51.3217 38.248C51.42 38.1198 51.4922 37.9735 51.534 37.8174ZM41.0001 44.2812C39.188 44.2812 37.7189 42.8122 37.7189 41C37.7189 39.1878 39.188 37.7188 41.0001 37.7188C42.8123 37.7188 44.2814 39.1878 44.2814 41C44.2814 42.8122 42.8123 44.2812 41.0001 44.2812Z" fill="white"/>
</g>
<defs>
<linearGradient id="paint0_linear_95_347" x1="41" y1="-8.5" x2="41" y2="82" gradientUnits="userSpaceOnUse">
<stop stop-color="#EE7193"/>
<stop offset="1" stop-color="#FDD16B"/>
</linearGradient>
<clipPath id="clip0_95_347">
<rect width="42" height="42" fill="white" transform="translate(20 20)"/>
</clipPath>
</defs>
</svg>
