<svg width="36" height="36" viewBox="0 0 36 36" fill="none" xmlns="http://www.w3.org/2000/svg">
<path d="M0.188679 35.5467C0.28578 35.6866 0.415275 35.8008 0.566108 35.8797C0.71694 35.9586 0.884629 35.9999 1.05486 35.9999H34.9451C35.2912 35.9999 35.6146 35.83 35.8113 35.5467C35.9087 35.4068 35.9706 35.2453 35.9918 35.0761C36.013 34.9069 35.9928 34.7352 35.9329 34.5755C35.5219 33.4765 34.7536 32.5125 34.4415 32.15C34.3426 32.0343 34.2199 31.9415 34.0818 31.8779C33.9436 31.8142 33.7933 31.7813 33.6412 31.7812H2.3588C2.05083 31.7812 1.75833 31.9162 1.5585 32.15C1.24646 32.5125 0.478085 33.4765 0.0671089 34.5755C0.00720748 34.7352 -0.0130249 34.9069 0.00815155 35.0761C0.029328 35.2453 0.0912797 35.4068 0.188679 35.5467ZM4.21877 16.9453H10.6172V29.6718H4.21877V16.9453ZM14.8359 16.9453H21.1641V29.6718H14.8359V16.9453ZM25.3828 16.9453H31.7812V29.6718H25.3828V16.9453ZM2.28286 14.5254C2.48086 14.7242 2.75642 14.836 3.02895 14.836L3.02944 14.8358C3.02958 14.8358 3.02979 14.836 3.02993 14.8353H32.9701C32.9702 14.836 32.9704 14.8358 32.9706 14.8358L32.971 14.836C33.2436 14.836 33.5191 14.7242 33.7171 14.5254C33.9317 14.3108 35.5355 12.6405 35.9999 10.6172H3.09509e-05C0.464444 12.6405 2.0682 14.3108 2.28286 14.5254ZM35.3287 8.50778L18.4717 0.111217C18.3252 0.0380749 18.1637 0 18 0C17.8363 0 17.6748 0.0380749 17.5283 0.111217L0.671303 8.50778H35.3287Z" fill="url(#paint0_linear_53_750)"/>
<defs>
<linearGradient id="paint0_linear_53_750" x1="18" y1="-3.7317" x2="18" y2="35.9999" gradientUnits="userSpaceOnUse">
<stop stop-color="#EE7193"/>
<stop offset="1" stop-color="#FDD16B"/>
</linearGradient>
</defs>
</svg>
