<svg width="36" height="36" viewBox="0 0 36 36" fill="none" xmlns="http://www.w3.org/2000/svg">
<path d="M12.7795 4.26764C14.1714 2.87573 16.0253 2.10925 17.9999 2.10925C19.9745 2.10925 21.8284 2.87573 23.2203 4.26764C23.4262 4.47365 23.6962 4.57659 23.966 4.57659C24.2359 4.57659 24.5059 4.47358 24.7118 4.26764C25.1237 3.85582 25.1237 3.18799 24.7118 2.7761C22.9216 0.9858 20.538 -0.00012207 17.9999 -0.00012207C15.4618 -0.00012207 13.0781 0.9858 11.2879 2.7761C10.876 3.18792 10.876 3.85575 11.2879 4.26764C11.6997 4.67953 12.3676 4.67953 12.7795 4.26764Z" fill="url(#paint0_linear_53_757)"/>
<path d="M20.9832 7.55965C21.1218 7.55983 21.259 7.53263 21.3869 7.47961C21.5149 7.42659 21.6312 7.34879 21.729 7.2507C22.1409 6.83888 22.1409 6.17105 21.729 5.75916C19.6729 3.70308 16.3273 3.70308 14.2712 5.75916C13.8593 6.17098 13.8593 6.83881 14.2712 7.2507C14.683 7.66252 15.3508 7.66252 15.7627 7.2507C16.9965 6.01707 19.0037 6.01707 20.2375 7.2507C20.3353 7.34879 20.4515 7.42659 20.5795 7.47961C20.7075 7.53263 20.8447 7.55983 20.9832 7.55965Z" fill="url(#paint1_linear_53_757)"/>
<path d="M18 10.5428C18.5825 10.5428 19.0547 10.0706 19.0547 9.4881C19.0547 8.90561 18.5825 8.43341 18 8.43341C17.4175 8.43341 16.9453 8.90561 16.9453 9.4881C16.9453 10.0706 17.4175 10.5428 18 10.5428Z" fill="url(#paint2_linear_53_757)"/>
<path d="M34.875 17.0155H28.5469V35.9999H34.875C35.4575 35.9999 35.9297 35.5277 35.9297 34.9452V18.0702C35.9297 17.4877 35.4575 17.0155 34.875 17.0155ZM32.2383 31.7811C31.6558 31.7811 31.1836 31.3089 31.1836 30.7264C31.1836 30.144 31.6558 29.6718 32.2383 29.6718C32.8207 29.6718 33.293 30.144 33.293 30.7264C33.293 31.3089 32.8207 31.7811 32.2383 31.7811ZM32.2383 27.5624C31.6558 27.5624 31.1836 27.0902 31.1836 26.5077C31.1836 25.9252 31.6558 25.453 32.2383 25.453C32.8207 25.453 33.293 25.9252 33.293 26.5077C33.293 27.0902 32.8207 27.5624 32.2383 27.5624ZM32.2383 23.3436C31.6558 23.3436 31.1836 22.8714 31.1836 22.2889C31.1836 21.7065 31.6558 21.2343 32.2383 21.2343C32.8207 21.2343 33.293 21.7065 33.293 22.2889C33.293 22.8714 32.8207 23.3436 32.2383 23.3436ZM25.3828 12.0936H10.6172C10.0347 12.0936 9.5625 12.5658 9.5625 13.1483V35.9999H12.7266V30.0233C12.7266 29.4408 13.1988 28.9686 13.7812 28.9686H22.2188C22.8012 28.9686 23.2734 29.4408 23.2734 30.0233V35.9999H26.4375V13.1483C26.4375 12.5658 25.9653 12.0936 25.3828 12.0936ZM13.7812 26.8593C13.1988 26.8593 12.7266 26.387 12.7266 25.8046C12.7266 25.2221 13.1988 24.7499 13.7812 24.7499C14.3637 24.7499 14.8359 25.2221 14.8359 25.8046C14.8359 26.387 14.3637 26.8593 13.7812 26.8593ZM13.7812 22.6405C13.1988 22.6405 12.7266 22.1683 12.7266 21.5858C12.7266 21.0033 13.1988 20.5311 13.7812 20.5311C14.3637 20.5311 14.8359 21.0033 14.8359 21.5858C14.8359 22.1683 14.3637 22.6405 13.7812 22.6405ZM13.7812 18.4218C13.1988 18.4218 12.7266 17.9495 12.7266 17.3671C12.7266 16.7846 13.1988 16.3124 13.7812 16.3124C14.3637 16.3124 14.8359 16.7846 14.8359 17.3671C14.8359 17.9495 14.3637 18.4218 13.7812 18.4218ZM18 26.8593C17.4175 26.8593 16.9453 26.387 16.9453 25.8046C16.9453 25.2221 17.4175 24.7499 18 24.7499C18.5825 24.7499 19.0547 25.2221 19.0547 25.8046C19.0547 26.387 18.5825 26.8593 18 26.8593ZM18 22.6405C17.4175 22.6405 16.9453 22.1683 16.9453 21.5858C16.9453 21.0033 17.4175 20.5311 18 20.5311C18.5825 20.5311 19.0547 21.0033 19.0547 21.5858C19.0547 22.1683 18.5825 22.6405 18 22.6405ZM18 18.4218C17.4175 18.4218 16.9453 17.9495 16.9453 17.3671C16.9453 16.7846 17.4175 16.3124 18 16.3124C18.5825 16.3124 19.0547 16.7846 19.0547 17.3671C19.0547 17.9495 18.5825 18.4218 18 18.4218ZM22.2188 26.8593C21.6363 26.8593 21.1641 26.387 21.1641 25.8046C21.1641 25.2221 21.6363 24.7499 22.2188 24.7499C22.8012 24.7499 23.2734 25.2221 23.2734 25.8046C23.2734 26.387 22.8012 26.8593 22.2188 26.8593ZM22.2188 22.6405C21.6363 22.6405 21.1641 22.1683 21.1641 21.5858C21.1641 21.0033 21.6363 20.5311 22.2188 20.5311C22.8012 20.5311 23.2734 21.0033 23.2734 21.5858C23.2734 22.1683 22.8012 22.6405 22.2188 22.6405ZM22.2188 18.4218C21.6363 18.4218 21.1641 17.9495 21.1641 17.3671C21.1641 16.7846 21.6363 16.3124 22.2188 16.3124C22.8012 16.3124 23.2734 16.7846 23.2734 17.3671C23.2734 17.9495 22.8012 18.4218 22.2188 18.4218Z" fill="url(#paint3_linear_53_757)"/>
<path d="M14.8359 31.078H16.9453V35.9999H14.8359V31.078ZM19.0547 31.078H21.1641V35.9999H19.0547V31.078ZM0.0703125 18.0702V34.9452C0.0703125 35.5277 0.542531 35.9999 1.125 35.9999H7.45312V17.0155H1.125C0.542531 17.0155 0.0703125 17.4877 0.0703125 18.0702ZM3.76172 21.2343C4.34419 21.2343 4.81641 21.7065 4.81641 22.2889C4.81641 22.8714 4.34419 23.3436 3.76172 23.3436C3.17925 23.3436 2.70703 22.8714 2.70703 22.2889C2.70703 21.7065 3.17925 21.2343 3.76172 21.2343ZM3.76172 25.453C4.34419 25.453 4.81641 25.9252 4.81641 26.5077C4.81641 27.0902 4.34419 27.5624 3.76172 27.5624C3.17925 27.5624 2.70703 27.0902 2.70703 26.5077C2.70703 25.9252 3.17925 25.453 3.76172 25.453ZM3.76172 29.6718C4.34419 29.6718 4.81641 30.144 4.81641 30.7264C4.81641 31.3089 4.34419 31.7811 3.76172 31.7811C3.17925 31.7811 2.70703 31.3089 2.70703 30.7264C2.70703 30.144 3.17925 29.6718 3.76172 29.6718Z" fill="url(#paint4_linear_53_757)"/>
<defs>
<linearGradient id="paint0_linear_53_757" x1="17.9998" y1="-0.474537" x2="17.9998" y2="4.57659" gradientUnits="userSpaceOnUse">
<stop stop-color="#EE7193"/>
<stop offset="1" stop-color="#FDD16B"/>
</linearGradient>
<linearGradient id="paint1_linear_53_757" x1="18.0001" y1="3.87062" x2="18.0001" y2="7.55965" gradientUnits="userSpaceOnUse">
<stop stop-color="#EE7193"/>
<stop offset="1" stop-color="#FDD16B"/>
</linearGradient>
<linearGradient id="paint2_linear_53_757" x1="18" y1="8.21476" x2="18" y2="10.5428" gradientUnits="userSpaceOnUse">
<stop stop-color="#EE7193"/>
<stop offset="1" stop-color="#FDD16B"/>
</linearGradient>
<linearGradient id="paint3_linear_53_757" x1="22.7461" y1="9.61554" x2="22.7461" y2="35.9999" gradientUnits="userSpaceOnUse">
<stop stop-color="#EE7193"/>
<stop offset="1" stop-color="#FDD16B"/>
</linearGradient>
<linearGradient id="paint4_linear_53_757" x1="10.6172" y1="15.0476" x2="10.6172" y2="35.9999" gradientUnits="userSpaceOnUse">
<stop stop-color="#EE7193"/>
<stop offset="1" stop-color="#FDD16B"/>
</linearGradient>
</defs>
</svg>
