<svg width="36" height="36" viewBox="0 0 36 36" fill="none" xmlns="http://www.w3.org/2000/svg">
<path d="M6.39844 27.5625H8.50781V29.6719H6.39844V27.5625Z" fill="url(#paint0_linear_53_769)"/>
<path d="M34.875 22.5H0.0703125V34.9453C0.0703125 35.5278 0.542531 36 1.125 36H21.1641V26.5078C21.1641 25.9253 21.6363 25.4531 22.2188 25.4531H30.6562C31.2387 25.4531 31.7109 25.9253 31.7109 26.5078V36H34.875C35.4575 36 35.9297 35.5278 35.9297 34.9453V23.5547C35.9297 22.9722 35.4575 22.5 34.875 22.5ZM19.0547 30.7266C19.0547 31.309 18.5825 31.7812 18 31.7812H5.34375C4.76128 31.7812 4.28906 31.309 4.28906 30.7266V26.5078C4.28906 25.9253 4.76128 25.4531 5.34375 25.4531H18C18.5825 25.4531 19.0547 25.9253 19.0547 26.5078V30.7266Z" fill="url(#paint1_linear_53_769)"/>
<path d="M10.6172 27.5625H12.7266V29.6719H10.6172V27.5625ZM23.2734 27.5625H25.3828V36H23.2734V27.5625ZM14.8359 27.5625H16.9453V29.6719H14.8359V27.5625ZM27.4922 27.5625H29.6016V36H27.4922V27.5625ZM20.4573 0.967078C20.4117 0.420469 19.9548 0 19.4062 0H16.5938C16.0452 0 15.5883 0.420469 15.5427 0.967078L15.2717 4.21875H20.7283L20.4573 0.967078ZM9.20728 0.967078C9.16172 0.420469 8.70476 0 8.15625 0H5.34375C4.79524 0 4.33828 0.420469 4.29272 0.967078L4.02173 4.21875H9.47827L9.20728 0.967078ZM24.6797 18.6328C24.6797 18.0503 24.2075 17.5781 23.625 17.5781H1.125C0.542531 17.5781 0.0703125 18.0503 0.0703125 18.6328V20.3906H24.6797V18.6328ZM20.904 6.32812H15.096L14.3343 15.4688H21.6657L20.904 6.32812ZM9.65405 6.32812H3.84595L3.08426 15.4688H10.4157L9.65405 6.32812ZM27.1686 10.9764C26.7567 11.3883 26.7567 12.0561 27.1686 12.468C27.5805 12.8798 28.2483 12.8798 28.6601 12.468C29.3456 11.7825 30.4607 11.7825 31.146 12.468C31.5579 12.8798 32.2257 12.8798 32.6376 12.468C33.0495 12.0561 33.0495 11.3883 32.6376 10.9764C31.1298 9.46863 28.6765 9.46863 27.1686 10.9764Z" fill="url(#paint2_linear_53_769)"/>
<path d="M25.6771 9.4847C28.0073 7.15441 31.799 7.15441 34.1292 9.4847C34.5411 9.8966 35.2089 9.8966 35.6208 9.4847C36.0327 9.07281 36.0327 8.40506 35.6208 7.99317C32.468 4.84049 27.3382 4.84049 24.1855 7.99317C23.7736 8.40506 23.7736 9.07281 24.1855 9.4847C24.5975 9.8966 25.2652 9.8966 25.6771 9.4847Z" fill="url(#paint3_linear_53_769)"/>
<defs>
<linearGradient id="paint0_linear_53_769" x1="7.45313" y1="27.3438" x2="7.45313" y2="29.6719" gradientUnits="userSpaceOnUse">
<stop stop-color="#EE7193"/>
<stop offset="1" stop-color="#FDD16B"/>
</linearGradient>
<linearGradient id="paint1_linear_53_769" x1="18" y1="21.1006" x2="18" y2="36" gradientUnits="userSpaceOnUse">
<stop stop-color="#EE7193"/>
<stop offset="1" stop-color="#FDD16B"/>
</linearGradient>
<linearGradient id="paint2_linear_53_769" x1="16.5084" y1="-3.73171" x2="16.5084" y2="36" gradientUnits="userSpaceOnUse">
<stop stop-color="#EE7193"/>
<stop offset="1" stop-color="#FDD16B"/>
</linearGradient>
<linearGradient id="paint3_linear_53_769" x1="29.9031" y1="5.19693" x2="29.9031" y2="9.79362" gradientUnits="userSpaceOnUse">
<stop stop-color="#EE7193"/>
<stop offset="1" stop-color="#FDD16B"/>
</linearGradient>
</defs>
</svg>
