<svg width="22" height="34" viewBox="0 0 22 34" fill="none" xmlns="http://www.w3.org/2000/svg">
<path d="M20.2827 31.8967H17.5057L16.287 26.702L7.68879 31.8967H1.68548C1.13915 31.8967 0.696289 32.3397 0.696289 32.8859C0.696289 33.4321 1.13921 33.8749 1.68548 33.8749H20.2827C20.829 33.8749 21.2719 33.4321 21.2719 32.8859C21.2719 32.3396 20.829 31.8967 20.2827 31.8967ZM5.36578 11.8426C5.56026 12.1011 5.85689 12.2375 6.15722 12.2375C6.36425 12.2375 6.57293 12.1726 6.7509 12.0387C7.1876 11.7103 7.27535 11.0901 6.94718 10.6536C6.29359 9.78428 5.93373 8.70691 5.93373 7.61947C5.93373 6.45646 6.33973 5.32019 7.07701 4.42038C7.42306 3.99787 7.36125 3.37455 6.93853 3.02829C6.51608 2.6822 5.8927 2.74406 5.54645 3.16646C4.52018 4.41891 3.95513 6.00042 3.95513 7.61947C3.95513 9.13333 4.45611 10.633 5.36578 11.8426Z" fill="url(#paint0_linear_53_780)"/>
<path d="M3.25302 14.8923C3.47239 14.8923 3.69303 14.8198 3.87634 14.6707C4.30048 14.3263 4.36456 13.7031 4.02015 13.2792C2.72361 11.6846 2.00985 9.6745 2.00985 7.61949C2.01019 5.46863 2.78294 3.38941 4.18742 1.76041C4.54396 1.34676 4.49803 0.722174 4.08422 0.365214C3.67052 0.00862275 3.04598 0.0547655 2.68897 0.468205C0.974758 2.45655 0.0316125 4.99438 0.03125 7.61965C0.03125 10.1276 0.902583 12.5808 2.48483 14.5272C2.68032 14.7677 2.96545 14.8923 3.25302 14.8923V14.8923ZM16.0319 7.61949C16.0319 8.70693 15.6722 9.7845 15.0184 10.6536C14.69 11.0903 14.7778 11.7104 15.2145 12.0387C15.3856 12.1678 15.5941 12.2376 15.8084 12.2375C15.9619 12.2377 16.1133 12.2021 16.2507 12.1335C16.388 12.065 16.5075 11.9654 16.5996 11.8426C17.5093 10.633 18.0105 9.13313 18.0105 7.61949C18.0105 6.00038 17.4454 4.41897 16.4192 3.16653C16.0728 2.74402 15.4497 2.68221 15.0268 3.02831C14.6046 3.37457 14.5425 3.99773 14.8888 4.42019C15.626 5.32037 16.0319 6.45648 16.0319 7.61949Z" fill="url(#paint1_linear_53_780)"/>
<path d="M19.9555 7.61948C19.9555 9.67449 19.2418 11.6846 17.9454 13.2792C17.6006 13.7031 17.6651 14.3263 18.089 14.6707C18.265 14.8142 18.4852 14.8926 18.7124 14.8923C18.9998 14.8923 19.2851 14.7675 19.4805 14.5271C21.0627 12.5809 21.9341 10.1277 21.9341 7.61948C21.9338 4.99423 20.9906 2.45642 19.2764 0.46814C18.9193 0.0543319 18.2948 0.00840008 17.881 0.365202C17.4676 0.721741 17.4214 1.34659 17.778 1.7604C19.1825 3.38935 19.9553 5.4686 19.9555 7.61948ZM4.55518 31.4782L13.8238 25.8782L6.62733 22.6466L4.55518 31.4782ZM15.792 24.5936L14.4633 18.9298L9.26316 21.6617L15.792 24.5936ZM10.9812 10.722C12.692 10.722 14.0838 9.33029 14.0838 7.61948C14.0838 5.90893 12.692 4.51721 10.9812 4.51721C9.27081 4.51721 7.87888 5.90887 7.87888 7.61948C7.87888 9.33029 9.27081 10.722 10.9812 10.722ZM12.9122 12.3182C12.2998 12.571 11.6437 12.7008 10.9812 12.7003C10.3188 12.7008 9.66283 12.571 9.05059 12.3182L7.11839 20.5539L13.9966 16.9403L12.9122 12.3182Z" fill="url(#paint2_linear_53_780)"/>
<defs>
<linearGradient id="paint0_linear_53_780" x1="10.9841" y1="-0.416411" x2="10.9841" y2="33.8749" gradientUnits="userSpaceOnUse">
<stop stop-color="#EE7193"/>
<stop offset="1" stop-color="#FDD16B"/>
</linearGradient>
<linearGradient id="paint1_linear_53_780" x1="9.02086" y1="-1.40549" x2="9.02086" y2="14.8923" gradientUnits="userSpaceOnUse">
<stop stop-color="#EE7193"/>
<stop offset="1" stop-color="#FDD16B"/>
</linearGradient>
<linearGradient id="paint2_linear_53_780" x1="13.2446" y1="-3.12503" x2="13.2446" y2="31.4782" gradientUnits="userSpaceOnUse">
<stop stop-color="#EE7193"/>
<stop offset="1" stop-color="#FDD16B"/>
</linearGradient>
</defs>
</svg>
