<svg width="40" height="40" viewBox="0 0 40 40" fill="none" xmlns="http://www.w3.org/2000/svg">
<path d="M27.2105 20C27.2112 18.7417 27.1665 17.4838 27.0767 16.2287C25.6461 15.9543 24.4878 14.9041 24.0598 13.5337H13.1943C12.9352 15.5298 12.7895 17.6962 12.7895 20C12.7895 21.4132 12.8447 22.7744 12.9467 24.0769C14.3666 24.3581 15.5145 25.4047 15.9402 26.7676H26.7659C27.0501 24.689 27.2105 22.42 27.2105 20ZM28.2355 8.44602C29.8152 8.61258 31.1196 9.71656 31.5798 11.1901H37.9517C35.3847 5.98055 30.6164 2.04336 24.8682 0.600312C25.6619 1.66422 26.3852 3.0025 27.0169 4.59781C27.4845 5.77906 27.8918 7.06984 28.2355 8.44602ZM10.6166 24.3259C10.5022 22.8868 10.4451 21.4437 10.4457 20C10.4457 17.7771 10.5786 15.6031 10.834 13.5337H1.0732C0.378047 15.563 0 17.7381 0 20C0 22.3743 0.416797 24.6529 1.17961 26.7676H8.42031C8.76281 25.6708 9.57328 24.7791 10.6166 24.3259ZM11.8433 31.8621C10.2284 31.7245 8.88812 30.6092 8.42023 29.1113H2.19867C4.79914 34.1714 9.49469 37.9845 15.1318 39.3996C14.3381 38.3357 13.6148 36.9974 12.9831 35.4021C12.5506 34.3096 12.17 33.1229 11.8433 31.8621ZM13.5639 11.19H24.0598C24.3665 10.2083 25.0479 9.39055 25.9357 8.90477C24.533 3.37594 22.1865 0 20 0C17.5267 0 14.849 4.32062 13.5639 11.19ZM8.94734 4.12109C8.94734 6.2925 7.18078 8.05914 5.0093 8.05914C4.68023 8.05914 4.3607 8.01797 4.05492 7.94156C3.28414 8.95805 2.61221 10.0458 2.04828 11.1901H11.1834C11.6102 8.76797 12.2159 6.53594 12.9831 4.59789C13.6148 3.00258 14.3381 1.6643 15.1318 0.600391C12.8708 1.16797 10.7612 2.12102 8.87758 3.38609C8.92377 3.62837 8.94713 3.87445 8.94734 4.12109ZM31.0527 35.8789C31.0527 33.7075 32.8192 31.9409 34.9907 31.9409C35.3198 31.9409 35.6393 31.982 35.9451 32.0584C36.6482 31.1318 37.2693 30.1457 37.8013 29.1113H28.7618C28.3384 31.4171 27.7522 33.5449 27.0169 35.4021C26.3852 36.9974 25.6619 38.3357 24.8682 39.3996C27.1293 38.832 29.2389 37.879 31.1225 36.6138C31.0762 36.3716 31.0529 36.1255 31.0527 35.8789ZM26.3787 29.1113H15.9402C15.6415 30.0676 14.9867 30.8674 14.1325 31.3573C15.5422 36.7301 17.8484 40 20 40C22.437 40 25.0724 35.8055 26.3787 29.1113ZM38.8204 26.7676C39.5832 24.6529 40 22.3743 40 20C40 17.7381 39.622 15.563 38.9268 13.5337H31.5798C31.2397 14.6227 30.4381 15.5091 29.4055 15.9654C29.5049 17.308 29.5546 18.6538 29.5543 20C29.5543 22.3309 29.4084 24.6084 29.128 26.7676H38.8204ZM27.8198 13.9562C28.6989 13.9562 29.4141 13.241 29.4141 12.3619C29.4141 11.4827 28.6989 10.7676 27.8198 10.7676C26.9407 10.7676 26.2255 11.4827 26.2255 12.3619C26.2255 13.241 26.9407 13.9562 27.8198 13.9562Z" fill="url(#paint0_linear_53_790)"/>
<path d="M12.1802 29.5338C13.0607 29.5338 13.7745 28.82 13.7745 27.9395C13.7745 27.059 13.0607 26.3452 12.1802 26.3452C11.2997 26.3452 10.5859 27.059 10.5859 27.9395C10.5859 28.82 11.2997 29.5338 12.1802 29.5338Z" fill="url(#paint1_linear_53_790)"/>
<path d="M5.00934 5.71545C5.88984 5.71545 6.60363 5.00166 6.60363 4.12115C6.60363 3.24065 5.88984 2.52686 5.00934 2.52686C4.12883 2.52686 3.41504 3.24065 3.41504 4.12115C3.41504 5.00166 4.12883 5.71545 5.00934 5.71545Z" fill="url(#paint2_linear_53_790)"/>
<path d="M34.9907 34.2847C34.1115 34.2847 33.3964 34.9998 33.3964 35.879C33.3964 36.7581 34.1115 37.4733 34.9907 37.4733C35.8697 37.4733 36.5849 36.7581 36.5849 35.879C36.5849 34.9998 35.8697 34.2847 34.9907 34.2847Z" fill="url(#paint3_linear_53_790)"/>
<defs>
<linearGradient id="paint0_linear_53_790" x1="20" y1="-4.14634" x2="20" y2="40" gradientUnits="userSpaceOnUse">
<stop stop-color="#EE7193"/>
<stop offset="1" stop-color="#FDD16B"/>
</linearGradient>
<linearGradient id="paint1_linear_53_790" x1="12.1802" y1="26.0147" x2="12.1802" y2="29.5338" gradientUnits="userSpaceOnUse">
<stop stop-color="#EE7193"/>
<stop offset="1" stop-color="#FDD16B"/>
</linearGradient>
<linearGradient id="paint2_linear_53_790" x1="5.00934" y1="2.19633" x2="5.00934" y2="5.71545" gradientUnits="userSpaceOnUse">
<stop stop-color="#EE7193"/>
<stop offset="1" stop-color="#FDD16B"/>
</linearGradient>
<linearGradient id="paint3_linear_53_790" x1="34.9906" y1="33.9541" x2="34.9906" y2="37.4733" gradientUnits="userSpaceOnUse">
<stop stop-color="#EE7193"/>
<stop offset="1" stop-color="#FDD16B"/>
</linearGradient>
</defs>
</svg>
